<svg width="1440" height="292" viewBox="0 0 1440 292" fill="none" xmlns="http://www.w3.org/2000/svg">
<path d="M1520 274.286C1429.72 274.532 1282.81 273.985 1279.32 273.098C1277.74 272.712 1276.1 272.578 1274.47 272.701C1271.35 272.927 1267.95 274.116 1268 275.079C1268.04 275.871 1270.37 276.351 1272.04 276.664C1295.97 281.149 1310.66 283.907 1329.89 278.249C1334.34 276.937 1346.58 273.347 1346.47 268.739C1346.43 267.094 1344.85 265.692 1342.02 263.984C1334.46 259.439 1326.82 258.091 1318.56 257.247C1311.15 256.491 1299.95 255.413 1287.01 257.247C1286 257.39 1281.75 258.4 1273.26 260.417C1268.16 261.63 1264.93 262.434 1264.76 263.984C1264.62 265.252 1266.61 266.417 1267.19 266.757C1270.36 268.62 1273.52 267.344 1277.71 267.55C1289.99 268.156 1292.92 267.193 1295.1 265.569C1295.98 264.915 1298.14 263.259 1298.74 260.417C1299.47 256.974 1297.43 254.077 1297.12 253.681C1296.56 252.917 1295.88 252.248 1295.1 251.7C1287.17 246.109 1279.8 239.777 1272.45 233.472C1259 221.945 1253.41 215.811 1224.31 187.903C1211.77 175.885 1202.26 166.901 1190.33 159.373C1185.99 156.631 1180.42 153.845 1169.3 148.277C1169.3 148.277 1166.17 146.692 1156.76 143.522C1151.24 141.652 1149.29 141.284 1147.86 142.334C1145.89 143.784 1145.49 147.485 1147.05 149.862C1149.59 153.698 1155.98 151.955 1156.36 151.844C1156.94 151.677 1162.48 149.985 1163.23 145.107C1163.88 140.911 1160.43 137.935 1160 137.579C1158.95 136.713 1157.71 136.086 1156.38 135.744C1155.05 135.401 1153.66 135.351 1152.31 135.597C1150.42 135.966 1148.17 137.095 1148.27 137.975C1148.35 138.676 1149.89 139.164 1151.1 139.164C1153.1 139.164 1154.52 137.789 1155.14 137.182C1156.18 136.176 1156.67 135.201 1157.57 133.22C1158.97 130.145 1159.94 127.799 1160 127.672C1161.88 123.127 1162.67 122.751 1165.66 116.181C1166.57 114.18 1167.03 113.161 1167.28 112.218C1168.31 108.323 1167.35 105.11 1167.28 103.501C1166.97 96.5386 1166.14 94.3393 1165.66 88.4431C1165.05 80.9776 1164.7 76.6347 1166.47 71.4042C1167.01 69.8191 1170.21 60.3289 1176.58 59.5165C1176.79 59.4888 1179.97 59.1203 1182.24 61.1015C1184.52 63.0828 1184.61 66.2964 1184.67 67.8379C1185.12 79.5274 1187.37 76.5 1187.5 91.6131C1187.6 102.352 1187.59 107.792 1185.08 111.426C1184.16 112.753 1183.13 113.803 1178.6 119.747C1177.64 121.011 1176.55 122.458 1174.15 125.691C1170.97 129.99 1169.35 141.731 1164.85 138.767C1164.81 138.744 1169.14 128.988 1176.18 128.069C1177.14 127.942 1176.89 128.148 1180.63 128.069C1186.12 127.954 1186.33 127.522 1189.53 127.672C1192.73 127.823 1193.55 128.318 1194.38 127.672C1196.18 126.277 1194.99 122.196 1194.38 119.747C1194.06 118.471 1193.63 112.555 1192.76 100.727C1192.08 91.4269 1192.54 82.313 1192.76 77.7442C1193.11 70.6909 1193.6 67.5169 1191.55 63.4791C1191.04 62.4845 1188.11 56.7427 1182.24 55.554C1179.41 54.9873 1177.05 55.7125 1174.96 56.3465C1171.75 57.3665 1168.83 59.134 1166.47 61.4978C1165.2 62.7143 1164.13 63.7327 1163.23 65.4603C1162.13 67.6809 1161.58 70.1241 1161.62 72.5929C1161.64 73.1279 1161.62 73.4766 1161.62 74.1779C1161.57 76.5317 1161.34 76.8249 1161.21 76.9517C1160.56 77.6214 1158.99 77.6412 1158.38 76.9517C1157.76 76.2622 1158.38 75.335 1159.19 72.5929C1160.34 68.7294 1160 67.9369 1161.21 65.4603C1161.76 64.2352 1162.59 63.1505 1163.64 62.2903C1164.37 61.7157 1164.5 61.8227 1164.85 61.4978C1166.66 59.8256 1163.97 56.1167 1164.45 50.7989C1164.58 49.309 1164.81 47.09 1166.47 45.2514C1168.36 43.1552 1171.55 42.1685 1172.13 42.8738C1172.54 43.3652 1171.73 44.7759 1170.92 45.6476C1168.94 47.7517 1165.92 47.7002 1161.62 47.6289C1159.71 47.5972 1158.78 47.407 1157.97 46.8364C1156.8 46.0439 1156.31 44.8036 1155.95 43.6664C1155.17 41.0938 1154.76 38.4258 1154.74 35.7413C1154.53 28.573 1153.41 27.9311 1153.93 22.6649C1154.38 18.0564 1155.38 17.1173 1155.95 16.7211C1156.52 16.3248 1157.69 15.778 1162.83 16.7211C1165.3 17.1712 1167.73 17.7881 1170.11 18.5676L1170.51 18.7023C1170.72 18.7697 1176.91 20.5806 1178.22 20.9689C1179.7 21.4088 1180.77 21.7258 1182.24 22.2686C1184.55 23.1126 1186.29 23.8536 1186.29 23.8536C1188.57 24.8681 1188.98 25.2603 1189.53 25.0424C1190.79 24.5273 1190.62 21.4761 1190.33 17.1173C1190.07 13.0359 1189.93 10.9952 1189.12 9.58849C1187.81 7.32192 1185.82 6.35902 1181.84 4.43719C1178.41 2.78041 1174.72 1.70839 1170.92 1.26715C1168.49 0.985811 1167.25 0.843159 1165.66 1.26715C1160.88 2.53913 1158.86 7.02473 1158.78 7.21097C1158.16 8.5788 1157.88 10.0742 1157.97 11.5698C1157.99 12.248 1158.13 12.9181 1158.38 13.551C1159.47 15.8057 1163.95 15.6195 1167.28 15.5323C1170.44 15.4491 1171.2 15.0132 1174.56 15.136C1176.58 15.2113 1177.61 15.247 1178.6 15.5323C1182.34 16.6101 1182.24 19.055 1186.29 21.0799C1187.6 21.7337 1189.32 22.1775 1192.76 23.0611C1195.64 23.8021 1195.92 23.6912 1197.21 24.2499C1199.88 25.403 1202.8 27.6418 1202.47 29.4012C1202.36 30.0075 1201.92 30.2413 1202.07 30.59C1202.39 31.3468 1204.53 30.3443 1206.92 30.9862C1209.66 31.7193 1209.5 33.76 1212.58 34.5525C1214.11 34.9488 1215.14 34.715 1215.41 35.345C1215.72 36.0464 1214.9 37.3857 1213.8 37.7225C1212.23 38.202 1210.69 36.4545 1210.16 36.93C1209.82 37.2233 1210.03 38.206 1210.56 38.9113C1211.95 40.7658 1215.05 40.0208 1215.41 41.2888C1215.45 41.5043 1215.43 41.7255 1215.36 41.9329C1215.29 42.1403 1215.17 42.3274 1215.01 42.4776C1214.2 43.2701 1212.43 42.8184 1211.37 42.4776C1204.24 40.1747 1197.44 36.9781 1191.14 32.9675C1186.59 29.8926 1181.77 27.1663 1177.39 23.8536C1175.77 22.6332 1173.97 21.1631 1171.32 20.6836C1169.76 20.3983 1168.7 20.6004 1166.47 19.8911C1165.42 19.5582 1165.01 19.3086 1164.45 19.4948C1163.11 19.9387 1162.22 22.3796 1162.83 24.2499C1163.37 25.9102 1164.63 25.7121 1165.66 27.8162C1166.49 29.5161 1166.27 30.8792 1166.87 30.9862C1167.48 31.0932 1167.74 29.738 1169.3 29.0049C1170.06 28.6483 1170.71 28.6325 1171.73 28.6087C1172.84 28.581 1175.02 28.5294 1175.37 29.4012C1175.48 29.6786 1175.37 29.9797 1173.75 32.175C1172.54 33.8274 1172.25 34.1008 1171.73 34.9488C1170.92 36.2762 1170.51 36.93 1170.51 37.7225C1170.51 39.1609 1171.69 40.1912 1172.94 41.2888C1174.19 42.3865 1175.7 43.7139 1177.8 43.6664C1178.97 43.6135 1180.11 43.1975 1181.03 42.4776C1183.5 40.631 1183.46 37.1559 1183.46 33.3637C1183.46 29.7539 1183.46 26.3144 1181.03 23.8536C1180.12 22.9264 1179.17 22.4549 1177.8 21.8724C1167.49 17.5136 1160.14 18.3893 1156.36 14.3435C1155.8 13.6886 1155.11 13.1497 1154.33 12.7585C1152.04 11.6451 1149.82 12.4138 1147.86 12.7585C1146.49 13.0042 1146.52 12.81 1133.3 10.7773C1128.74 10.0759 1127.45 9.90153 1127.23 10.381C1127.02 10.8605 1127.79 11.9066 1134.11 15.9286C1143.62 21.9794 1149.25 24.2499 1149.08 24.6462C1148.96 24.9235 1146.52 23.6872 1133.3 18.3061C1131.28 17.4779 1128.09 16.1901 1128.04 14.3435C1128.06 13.9395 1128.17 13.5455 1128.39 13.1988C1128.6 12.8521 1128.9 12.5642 1129.26 12.3623C1130.38 11.7481 1131.68 12.4217 1133.71 13.1548C1135.55 13.8244 1137.51 14.1137 1139.37 14.7398C1145.78 16.8994 1152.91 17.9534 1164.85 21.8724C1179.51 26.6829 1174.65 27.0237 1182.24 29.0049C1184 29.4646 1187.84 30.376 1188.31 32.5712C1188.48 33.3637 1188.08 33.76 1186.69 36.5338C1184.43 41.0986 1184.75 41.6058 1183.46 42.8738C1181.84 44.4589 1180.63 44.3123 1180.22 45.6476C1179.74 47.2089 1180.91 48.8692 1181.44 49.6102C1183.28 52.2136 1185.57 52.479 1185.48 53.1765C1185.29 54.6347 1175.45 52.3404 1167.28 57.139C1164.88 58.5523 1162.82 60.4421 1161.21 62.6866C1159.26 65.4405 1158.3 68.3807 1157.57 73.7817C1156.92 78.6279 1156.59 84.3458 1157.17 93.9906C1157.88 105.823 1158.86 105.395 1157.97 108.652C1156.79 112.979 1154.39 116.181 1153.53 123.313C1153.46 123.884 1153.02 127.565 1153.53 127.672C1153.72 127.712 1154.11 127.24 1156.36 120.936C1157.27 118.376 1157.07 118.828 1159.59 110.633C1160.74 106.905 1161.21 105.482 1160.4 104.689C1159.85 104.135 1159.09 104.293 1155.55 104.293C1152.76 104.293 1153.74 104.19 1151.28 104.21C1146.73 104.25 1144 104.586 1141.39 104.689C1135.19 104.935 1129.89 105.145 1126.83 101.916C1125.29 100.295 1124.17 97.656 1124.81 95.1794C1125.57 92.2035 1128.55 90.7612 1130.06 90.0281C1133.86 88.1895 1135.08 89.6001 1143.41 88.8393C1148.91 88.3361 1152.49 87.3494 1153.93 89.2356C1154.08 89.3954 1154.19 89.5836 1154.26 89.7882C1154.33 89.9929 1154.36 90.2096 1154.33 90.4244C1154.12 91.3635 1152.37 92.1441 1142.2 92.4056C1130.36 92.7068 1127.5 91.7835 1125.21 90.0281C1123.64 88.8393 1124.23 88.6888 1122.78 87.6506C1117.7 84.005 1113.2 87.6981 1104.58 85.6693C1101.62 84.9719 1100.13 84.0605 1096.9 84.0843C1095.55 84.0843 1094.73 84.2547 1094.06 83.688C1092.49 82.3487 1092.99 78.0018 1095.28 76.5555C1095.9 76.1592 1096.76 75.9175 1102.15 77.348C1105.63 78.2443 1109.01 79.4377 1112.27 80.9143C1114.59 81.9683 1116.46 82.9748 1117.53 84.8768C1117.88 85.5238 1118.13 86.2259 1118.25 86.9532C1118.44 88.1102 1118.5 90.3926 1117.53 90.8206C1116.34 91.3437 1113.57 89.1524 1113.48 86.8581C1113.46 86.2241 1113.63 85.1502 1114.29 84.8768C1115.14 84.5281 1116.31 85.6693 1116.72 86.0656C1117.57 86.8937 1118.59 88.3123 1119.14 91.6131C1119.64 94.5811 1120.26 98.2226 1118.33 99.5382C1117.63 100.018 1116.79 99.9899 1115.1 99.9345C1113.08 99.8671 1111.22 99.8077 1109.84 98.7457C1107.09 96.6257 1107.72 91.6448 1107.82 90.8206C1108.02 89.2356 1108.56 87.6506 1108.63 84.4805C1108.63 83.8109 1108.63 83.4741 1108.63 83.2918C1108.33 80.7835 1102.81 78.2356 1092.85 76.9517C1077.2 74.9308 1063.99 77.768 1055.23 79.7255C1042.03 82.6736 1035.44 85.9942 1033.79 86.8581C1029.91 88.9027 1029.06 90.1668 1024.09 92.4056C1022.14 93.2813 1019.49 94.3433 1019.64 95.1794C1019.73 95.7143 1020.94 95.9164 1021.26 95.9719C1024.12 96.4553 1026.47 94.7514 1032.99 91.2169C1035.26 89.9805 1036.69 89.2554 1037.03 89.6318C1037.37 90.0083 1036.63 91.0385 1036.22 91.6131C1032.82 96.4989 1014.27 119.636 1014.38 119.747C1014.49 119.858 1027.73 108.256 1027.73 108.256C1032.43 104.131 1034.69 102.189 1035.41 102.708C1036.35 103.382 1034.4 107.959 1032.58 111.03C1030.3 114.897 1028.05 116.672 1026.92 120.936C1026.69 121.796 1026.11 124.027 1026.92 124.502C1027.48 124.835 1028.45 124.165 1028.54 124.106C1030.29 122.878 1030.2 120.076 1030.15 116.973C1030.06 111.144 1030.02 108.228 1030.15 107.463C1031.01 102.708 1036.86 100.331 1044.72 96.7644C1069.27 85.6495 1071.96 81.8613 1081.53 81.3105C1082.69 81.2431 1087.02 81.3977 1095.68 81.7068C1100.48 81.8772 1101.92 81.9683 1103.77 82.8955C1106.86 84.4409 1106.79 86.1567 1111.46 90.0281C1113.39 91.5955 1115.42 93.0509 1117.53 94.3869C1121.32 96.8318 1123.02 97.4499 1124 99.5382C1124.16 99.8829 1124.83 101.412 1124.4 104.293C1123.62 109.524 1120.11 113.118 1119.14 114.2C1113.79 120.175 1114.05 129.626 1114.29 137.975C1114.4 141.787 1114.93 160.767 1128.45 170.468C1130.22 171.74 1137.35 176.863 1142.6 174.43C1147.3 172.255 1148.63 164.9 1149.48 160.165C1150.19 156.242 1149.86 154.328 1151.1 147.881C1152.39 141.177 1153.3 140.352 1153.93 139.956C1156.36 138.438 1160.43 140.111 1168.49 143.522C1174.47 146.051 1176.48 147.485 1179.41 146.692C1182.03 145.999 1183.69 144.002 1185.08 142.334C1187.85 138.993 1187.7 136.572 1191.14 132.824C1192.54 131.302 1193.55 130.204 1194.38 130.446C1196.24 130.985 1195.49 137.733 1195.19 144.315C1194.9 150.603 1194.31 163.478 1197.21 174.43C1198.39 178.884 1198.89 178.262 1206.51 193.45C1216.5 213.338 1213.93 210.973 1219.46 220.792C1225.05 230.722 1228.42 241.857 1234.83 251.304C1235.23 251.89 1236.48 253.681 1236.04 255.662C1235.47 258.258 1232.3 259.589 1230.38 260.417C1214.86 267.114 1213.12 270.13 1205.71 269.928C1202.92 269.852 1198.64 269.301 1198.42 267.946C1198.34 267.392 1198.94 266.809 1201.26 265.172C1204.52 262.862 1207.13 261.325 1207.32 261.21C1210.71 259.205 1214.6 254.925 1215.01 250.511C1215.31 247.179 1213.19 244.326 1208.94 238.623C1204.09 232.085 1202.61 233.108 1200.04 228.321C1199.21 226.76 1198.15 224.39 1195.59 223.17C1193.65 222.242 1192.07 222.571 1191.95 221.981C1191.72 220.859 1197.09 218.307 1200.45 217.622C1201.93 217.342 1203.37 216.856 1204.72 216.18C1205.13 215.981 1205.39 215.823 1205.71 215.641C1208.81 213.842 1209.27 212.744 1210.56 212.471C1212.39 212.074 1214.96 213.548 1215.01 214.848C1215.09 217.087 1207.66 218.977 1202.07 220.396C1198.59 221.279 1197.42 221.299 1196.4 221.188C1193.22 220.84 1190.7 219.128 1187.91 216.433C1181.95 210.691 1179.12 204.72 1175.37 196.62C1172.75 190.966 1171.99 188.299 1172.13 185.129C1172.19 183.742 1172.85 181.563 1174.15 177.204C1175.89 171.407 1177.26 168.122 1179.41 164.92C1180.39 163.47 1182.03 161.029 1183.05 161.354C1184.21 161.722 1183.92 165.459 1183.86 166.109C1183.41 171.189 1180.77 174.826 1179.41 176.808C1176.58 180.929 1171.78 187.939 1170.11 196.224C1169.47 199.394 1168.57 203.828 1169.71 209.301C1170.7 214.091 1172.5 216.152 1171.32 217.622C1170.01 219.258 1166.72 218.018 1156.36 218.018C1153.12 218.018 1151.67 218.145 1150.69 219.207C1149.13 220.911 1149.89 223.883 1151.1 227.925C1154.77 240.232 1155.82 240.101 1156.36 244.171C1156.6 246.006 1157.88 255.722 1152.31 260.814C1149.76 263.152 1147.4 263.013 1143.82 266.757C1142.11 268.541 1139.37 271.39 1140.18 273.098C1140.76 274.358 1147.46 273.692 1160.81 272.305C1164.86 271.862 1168.82 270.792 1172.54 269.135C1175.41 267.847 1176.38 266.968 1176.99 265.965C1178.6 263.251 1177.32 260.021 1176.18 256.455C1174.49 251.181 1172.61 245.3 1172.54 239.02C1172.47 233.94 1173.6 229.724 1171.83 223.895C1171.51 222.816 1171.07 221.776 1170.51 220.792C1169.99 219.873 1167.2 214.931 1162.42 214.056C1160.22 213.659 1158.23 214.23 1154.74 215.244C1151.47 216.195 1149.99 217.178 1148.67 216.433C1147.35 215.688 1147.15 213.659 1147.05 212.471C1145.71 196.256 1145.1 198.943 1145.44 192.262C1145.58 189.421 1145.84 186.231 1146.24 182.752C1147.15 175.12 1148.29 170.864 1150.29 163.335C1151.41 159.131 1152.46 155.743 1153.53 155.806C1153.89 155.826 1154.14 156.238 1154.33 156.599C1155.77 159.333 1155.12 162.939 1154.74 165.316C1153.12 175.385 1154.27 176.97 1152.31 180.374C1151.84 181.087 1151.56 181.905 1151.5 182.752C1151.38 185.7 1154.45 188.145 1155.14 188.695C1157.6 190.653 1159.48 190.677 1159.59 191.865C1159.68 192.789 1158.6 193.45 1157.17 194.639C1154.92 196.47 1152.47 198.97 1151.5 200.583C1149.99 203.115 1151.06 205.271 1152.31 212.074C1153.99 221.216 1152.62 220.42 1153.93 224.755C1156.19 232.244 1159.41 231.752 1162.42 240.208C1163.47 243.129 1166.15 250.63 1162.83 254.077C1161.47 255.492 1159.78 255.52 1159.19 257.247C1158.52 259.205 1159.79 261.804 1161.62 263.191C1164.74 265.569 1169.17 264.146 1169.3 264.776C1169.41 265.283 1166.63 266.718 1161.21 267.946C1152.72 269.868 1145.95 269.424 1140.58 269.135C1122.45 268.16 1113.38 267.669 1102.96 269.135C1101.01 269.408 1098.41 269.836 1094.06 270.324C1088.17 270.986 1087.03 270.867 1076.27 271.513C1066.13 272.123 1062.14 272.531 1061.3 270.72C1060.53 269.06 1063.27 267.376 1062.51 264.38C1061.98 262.276 1060.01 260.608 1058.06 260.021C1056.47 259.542 1055.1 259.847 1049.57 262.002C1042.12 264.907 1041.73 265.474 1040.27 265.172C1037.76 264.657 1037.92 262.795 1032.58 258.04C1027.51 253.531 1025.47 253.523 1024.49 253.681C1023.78 253.796 1022.74 254.137 1020.85 256.059C1015.77 261.21 1015.22 266.884 1013.97 266.757C1013.09 266.67 1013.08 263.801 1011.95 258.832C1010.31 251.577 1008.9 251.304 1009.12 248.53C1009.58 242.677 1016.4 236.381 1022.47 236.642C1028.02 236.88 1031.29 242.527 1032.99 241.397C1034.38 240.47 1033.05 236.103 1031.77 233.472C1030.81 231.491 1027.23 224.069 1020.45 223.962C1014.7 223.871 1011.02 229.113 1010.74 229.51C1007.5 234.265 1008.81 239.812 1008.31 239.812C1007.81 239.812 1006.55 233.409 1007.1 225.547C1007.5 219.908 1007.81 216.112 1010.74 212.867C1011.25 212.296 1015.05 208.199 1019.23 208.904C1024.34 209.768 1026.13 217.15 1026.92 216.829C1027.82 216.461 1027.15 205.917 1020.04 202.961C1019.36 202.679 1016.55 201.51 1013.57 202.564C1007.74 204.633 1006.18 213.497 1005.48 213.263C1005.18 213.16 1005.55 211.539 1005.88 209.301C1006.83 202.881 1005.74 202.588 1006.69 200.187C1007.91 197.132 1009.61 197.75 1013.17 192.658C1014.1 191.323 1016.42 187.994 1015.59 187.11C1015 186.48 1013.02 187.305 1011.95 187.903C1008.21 190.003 1006.77 194.386 1006.29 195.828C1005.58 197.964 1005.53 199.394 1005.08 199.394C1004.52 199.394 1004.37 197.266 1003.05 193.847C1002.12 191.465 1000.9 189.203 999.412 187.11C998.482 185.811 996.864 183.77 996.581 183.94C996.298 184.111 998.134 187.324 999.412 190.28C1000.82 193.534 1001.5 196.565 1002.24 205.734C1002.41 207.739 1003.93 226.589 1002.65 226.736C1002.41 226.764 1002.29 226.137 1001.03 223.17C999.922 220.566 999.008 218.45 997.794 216.433C996.002 213.469 994.732 211.365 992.94 211.282C991.148 211.199 989.704 213.263 988.086 215.641C984.328 221.22 982.674 227.893 983.637 228.321C983.952 228.46 984.308 227.833 985.255 227.132C988.843 224.477 994.057 225.809 994.558 225.943C1001.03 227.691 1003.21 234.613 1003.46 235.453C1004.02 237.332 1004.07 238.988 1002.65 246.549C1000.79 256.455 998.741 264.015 998.603 263.984C999.086 262.036 999.357 260.044 999.412 258.04C999.412 256.772 999.412 249.98 996.985 249.322C995.573 248.926 993.822 250.749 992.131 252.492C989.3 255.405 988.895 257.588 987.277 257.644C986.019 257.687 985.02 256.399 984.446 255.662C982.33 252.944 983.637 250.63 982.019 249.322C980.271 247.92 976.886 249.092 975.142 250.115C972.97 251.391 971.955 253.249 971.097 254.87C968.768 259.272 968.897 263.191 968.67 263.191C968.444 263.191 968.763 257.358 969.075 252.096C969.593 243.43 969.686 240.755 971.906 239.02C973.156 238.045 975.069 237.371 976.76 237.831C979.944 238.699 980.724 243.137 981.21 242.982C981.877 242.768 982.019 233.789 976.76 231.887C975.757 231.542 974.684 231.433 973.63 231.571C972.575 231.709 971.569 232.089 970.693 232.68C968.314 234.407 968.266 237.506 967.457 237.435C966.729 237.371 966.349 234.804 966.243 233.076C966.053 229.906 965.819 225.991 968.266 223.566C970.03 221.818 971.32 222.69 975.142 219.999C977.828 218.109 977.954 217.139 977.974 216.829C978.079 215.066 975.838 213.659 973.929 212.471C971.397 210.886 968.751 209.233 966.648 210.093C963.339 211.448 963.792 218.05 963.007 218.018C962.126 217.983 962.041 209.669 962.198 204.546C962.36 199.244 962.781 197.227 964.221 195.432C965.434 193.93 966.919 193.118 966.648 192.262C966.341 191.295 963.926 190.764 962.198 191.469C960.297 192.262 959.282 194.501 958.558 198.602C956.758 208.782 959.015 217.531 958.558 217.622C958.38 217.658 958.008 216.322 957.344 214.452C955.726 209.847 954.319 205.917 952.49 205.734C951.228 205.608 950.084 207.319 948.85 209.301C944.235 216.79 940.295 225.547 941.165 225.943C941.864 226.268 943.434 220.126 948.446 218.811C952.288 217.804 956.798 219.999 959.367 222.773C960.479 223.962 961.284 225.353 962.198 227.925C965.491 237.197 964.775 246.858 963.816 246.945C963.412 246.98 963.351 245.391 961.794 241.793C960.176 238.017 958.226 233.555 955.726 233.472C954.444 233.429 953.372 234.764 951.277 237.435C948.328 241.191 946.229 245.336 946.828 245.756C947.297 246.085 948.761 243.636 952.086 242.982C953.154 242.775 954.254 242.775 955.322 242.982C956.819 243.298 958.211 243.979 959.367 244.964C962.753 247.63 965.459 252.746 965.03 258.04C964.937 259.169 964.702 262.086 963.007 262.795C962.243 263.116 961.697 262.767 960.176 262.399C959.343 262.197 955.399 261.246 952.086 262.399C949.744 263.215 950.136 264.241 948.243 264.578C945.731 265.022 944.955 263.231 941.771 263.389C941.128 263.421 938.188 263.643 937.322 265.371C936.837 266.337 937.391 266.999 936.917 267.748C935.914 269.333 931.995 268.6 931.659 268.541C927.019 267.748 856.16 268.045 750.849 268.937H522.106C516.248 268.784 510.421 268.053 504.712 266.757C486.401 262.601 475.342 253.947 463.858 244.964C461.387 243.03 451.877 235.453 450.51 226.736C450.32 225.547 449.96 223.043 451.319 221.981C453.034 220.641 456.941 222.012 459.004 224.358C461.067 226.704 460.905 229.51 460.622 234.265C460.218 240.815 459.983 244.916 456.577 247.737C453.078 250.634 448.665 250.182 448.083 250.115C444.394 249.683 440.434 247.341 439.184 243.775C438.737 242.64 438.598 241.412 438.779 240.208C439.228 237.613 441.133 236.927 440.802 235.453C440.47 233.979 438.274 232.941 436.352 233.076C435.434 233.139 433.654 233.472 433.521 234.265C433.242 235.945 440.094 240.109 444.038 237.831C445.421 237.038 446.012 235.687 446.465 234.661C447.771 231.693 446.683 229.906 447.274 225.151C447.471 223.817 447.741 222.494 448.083 221.188C450.166 211.5 448.127 206.218 450.105 205.338C452.249 204.383 456.707 209.665 459.409 212.867C462.394 216.402 464.776 219.124 466.285 223.17C468.477 229.042 467.555 234.098 466.285 240.605C464.287 250.836 462.851 258.187 456.173 262.795C455.295 263.401 448.451 267.974 440.802 265.965C431.332 263.477 425.803 252.259 425.835 244.964C425.835 241.397 425.641 237.831 425.835 234.265C426.005 231.154 426.24 230.025 425.431 228.717C423.376 225.321 416.649 224.204 414.105 226.736C413.409 227.429 413.102 228.321 412.891 232.283C412.535 238.964 412.891 242.19 412.891 242.19C413.725 249.719 414.226 254.264 415.723 258.832C417.021 262.795 421.321 275.915 434.33 282.211C450.049 289.82 466.014 281.419 467.499 280.626C479.298 274.183 483.577 263.286 486.105 256.851C491.967 241.92 489.438 228.753 488.128 222.377C486.162 212.819 483.61 200.432 472.352 191.865C461.868 183.885 449.972 183.897 447.678 183.94C444.47 184 439.386 184.154 433.925 187.11C430.888 188.755 428.667 191.243 424.217 196.224C423.344 197.203 422.539 198.158 422.599 199.394C422.713 201.693 425.73 203.159 429.071 204.942C437.877 209.645 441.425 210.985 441.206 212.074C441.073 212.744 439.523 213.231 438.375 212.867C436.7 212.336 436.243 210.093 435.543 208.112C434.674 205.635 434.649 206.99 429.476 198.602C429.35 198.396 427.639 195.035 424.217 188.299C423.724 187.328 423.004 185.87 423.408 185.525C423.979 185.05 426.373 186.968 427.049 187.507C431.725 191.243 432.38 194.176 436.757 199.791C441.461 205.825 443.811 208.841 444.847 209.697C445.49 210.228 447.504 211.833 447.274 213.659C447.174 214.256 446.892 214.808 446.465 215.244C444.183 217.848 439.321 216.936 438.779 216.829C436.17 216.306 433.78 214.9 433.925 214.452C434.071 214.004 436.757 214.452 438.375 214.848C440.947 215.482 443.775 216.184 444.847 218.414C445.425 219.603 445.223 220.721 444.847 222.773C444.491 224.715 443.848 228.194 441.611 229.113C439.859 229.831 437.845 228.689 437.161 228.321C429.476 224.144 420.1 224.073 411.678 221.585C404.119 219.363 396.416 217.642 388.622 216.433C393.043 212.974 396.234 210.303 398.33 208.508C399.543 207.474 401.104 206.103 400.757 205.338C400.465 204.696 398.888 204.601 398.734 204.942C398.524 205.413 400.951 206.864 402.374 207.716C408.203 211.207 411.569 209.935 420.577 212.471C426.349 214.095 428.962 215.74 430.285 214.452C431.498 213.263 430.689 210.466 429.88 208.904C427.825 204.942 423.081 203.69 420.172 202.961C415.666 201.827 411.569 202.01 408.037 202.168C403.422 202.374 400.113 203.052 397.116 200.979C396.308 200.464 395.619 199.789 395.094 198.998C394.22 197.544 394.325 196.129 394.689 193.054C395.498 186.068 395.903 185.64 396.307 185.525C397.415 185.22 398.908 187.071 399.543 188.299C400.352 189.884 400.858 192.575 399.543 193.847C398.301 195.035 396.712 193.779 391.858 193.847C387.558 193.906 386.316 194.94 384.577 193.847C382.671 192.658 382.267 190.205 382.15 189.488C381.861 187.556 382.292 185.587 383.363 183.94C386.978 183.406 390.629 183.142 394.285 183.148C409.304 183.187 414.914 183.94 414.914 183.94C415.82 184.063 419.238 184.535 422.195 182.752C422.632 182.49 424.371 181.44 424.217 180.374C424.043 179.185 421.608 178.623 420.577 178.393C412.43 176.582 395.696 179.078 384.577 179.185C373.311 179.296 365.828 176.974 364.756 179.582C364.396 180.457 364.946 181.428 367.588 184.733C379.286 199.394 384.172 204.149 384.172 204.149C385.669 205.608 388.524 208.338 387.813 209.697C387.639 209.958 387.397 210.169 387.113 210.308C386.829 210.447 386.512 210.51 386.195 210.489C385.543 210.438 385.204 209.966 384.172 208.904C382.441 207.121 382.364 207.379 382.15 206.923C381.24 204.985 383.363 201.807 385.79 200.187C386.676 199.596 387.679 198.923 389.026 198.998C391.522 199.137 393.52 201.772 393.88 204.149C394.02 205.222 393.881 206.313 393.476 207.319C391.817 211.872 387.384 214.575 385.386 215.641L325.52 223.17C324.579 218.811 323.635 214.452 322.689 210.093L374.869 203.357C376.365 203.127 378.064 202.751 378.105 202.168C378.198 200.773 368.769 199.133 367.992 198.998C364.477 198.396 354.413 196.937 335.228 199.791C332.206 200.238 327.721 200.979 322.284 202.168C322.593 199.138 322.593 196.085 322.284 193.054C322.052 190.782 321.646 188.53 321.071 186.318C319.356 186.56 313.385 187.194 309.34 183.544C303.952 178.686 306.023 169.889 306.913 166.109C307.176 164.991 310.275 152.533 319.857 146.692C320.949 146.027 322.887 144.985 322.689 144.315C322.385 143.293 317.725 145.218 310.958 144.315C307.475 143.851 301.177 142.334 298.14 143.459C297.629 143.633 297.169 143.927 296.801 144.315C295.587 145.619 295.911 147.643 295.992 148.277C296.202 149.902 295.276 145.397 294.374 166.109C294.228 169.426 294.079 173.578 293.969 178.393L300.846 179.978C300.919 164.857 301.853 157.756 302.868 154.221C303.578 151.773 303.716 149.2 303.273 146.692C302.953 144.973 302.634 143.237 301.25 141.937C299.867 140.638 298.483 140.868 292.351 140.352C286.438 139.857 285.281 139.405 284.261 140.352C282.886 141.628 283.505 143.82 283.857 147.485C284.116 150.203 283.651 147.703 283.452 160.561C283.343 167.547 283.452 171.185 283.452 176.412C283.505 193.102 282.708 201.724 283.048 212.074C283.133 214.682 283.274 218.973 283.857 224.358C284.108 226.736 284.233 227.925 284.261 228.321C285.002 234.201 285.633 235.327 285.07 237.831C284.718 239.408 284.029 240.893 283.048 242.19C282.401 243.038 281.907 243.68 281.025 244.171C280.475 244.476 279.44 244.908 274.553 244.171C272.001 243.775 270.715 243.585 270.104 242.982C269.493 242.38 269.42 241.77 268.89 237.831C268.308 233.504 268.207 233.139 268.486 232.283C268.971 230.786 270.233 228.955 272.126 228.321C272.964 228.04 273.227 228.226 277.385 228.321C278.328 228.38 279.274 228.38 280.216 228.321C281.948 227.845 282.7 226.133 285.07 219.999C287.497 213.774 287.821 212.653 287.497 210.886C287.187 209.1 286.342 207.445 285.07 206.131C282.073 203.127 277.134 202.806 273.744 204.149C269.699 205.734 268.081 209.602 266.464 213.659C263.349 221.402 263.567 228.178 264.036 239.02C264.295 244.995 264.845 248.359 265.654 253.285C266.298 257.208 267.086 260.988 269.295 265.172C271.241 268.858 272.996 270.403 274.958 271.116C276.254 271.567 277.642 271.703 279.003 271.513C284.071 270.914 290.673 265.256 294.374 257.247C297.768 249.901 297.177 243.105 295.992 229.51C295.094 219.207 294.572 213.933 291.138 209.301C290.211 208.052 283.772 199.636 274.553 199.791C262.823 199.985 255.093 213.933 252.711 222.773C251.36 227.79 251.675 231.931 252.306 240.208C252.537 243.248 253.487 253.887 258.374 267.55C261.699 276.846 263.446 281.566 267.677 284.985C273.388 289.602 280.034 290.172 284.261 290.533C285.519 290.64 298.014 291.575 307.722 285.778C329.464 272.788 324.25 233.702 322.689 221.981C321.168 210.581 319.388 198.602 309.34 189.488C307.006 187.376 298.973 180.319 286.688 179.978C283.715 179.895 272.126 179.764 263.227 188.695C255.445 196.498 254.818 206.079 254.733 208.508C245.308 217.658 242.412 218.315 241.385 217.622C240.503 217.028 240.576 215.153 243.003 206.527C245.887 196.315 247.331 191.208 248.666 189.092C255.947 177.529 275.698 177.545 279.407 177.6C279.539 172.317 279.674 167.034 279.812 161.75C270.841 161.801 261.897 162.73 253.115 164.524C249.879 165.194 238.804 167.468 238.958 169.279C239.067 170.547 244.621 171.177 247.857 171.26C249.616 171.304 251.958 171.217 259.992 169.675C263.227 169.053 265.897 168.486 267.677 168.09C268.618 157.259 269.562 146.428 270.508 135.597C276.94 133.061 281.757 132.665 285.07 132.824C286.284 132.883 288.136 133.057 289.924 132.031C292.61 130.494 293.565 127.169 293.969 124.502L301.655 125.295C299.044 127.05 296.725 129.189 294.778 131.635C292.084 135.031 290.154 138.947 289.115 143.126L297.205 142.334C297.745 140.484 298.284 138.635 298.823 136.786C302.868 133.114 306.913 129.416 310.958 125.691C315.712 121.324 320.431 116.965 325.116 112.615C321.613 112.404 318.101 112.404 314.599 112.615C306.035 113.134 306.759 114.366 291.947 116.973C289.411 117.421 286.377 117.913 286.284 118.955C286.203 119.858 288.371 120.714 289.924 121.332C293.205 122.632 297.751 124.435 302.059 122.917C304.652 122.002 305.336 120.54 308.127 117.766C309.203 116.7 319.699 106.318 325.52 108.652C329.128 110.098 329.969 116.042 330.374 118.955C331.3 125.556 328.517 126.967 329.969 133.616C330.638 136.472 331.587 139.259 332.801 141.937C334.12 144.866 334.65 145.21 335.228 147.089C336.077 149.862 335.713 151.646 335.228 156.599C334.116 167.9 335.001 168.93 335.632 169.279C336.846 169.957 338.945 169.089 340.082 168.09C340.889 167.342 341.452 166.377 341.7 165.316C342.509 162.261 341.931 152.22 340.082 138.767L333.206 138.371C331.713 138.522 329.415 139.005 327.947 140.749C326.187 142.841 326.568 145.631 326.734 147.485C327.854 159.979 322.555 166.901 326.329 169.675C327.599 170.61 329.136 170.515 329.969 170.468C343.01 169.75 369.804 170.995 378.105 171.656C391.134 172.695 400.453 175.619 402.779 171.656C403.398 170.602 403.463 167.916 403.588 162.543C403.653 159.805 403.685 158.433 403.588 155.806C403.382 150.136 403.107 131.425 402.779 104.293C401.869 104.055 400.627 103.758 399.138 103.501C396.712 103.081 396.206 103.2 395.903 103.501C395.381 104.024 395.692 104.927 395.903 106.275C395.903 106.302 395.903 108.01 395.903 111.426C395.903 117.441 393.738 130.64 394.689 144.711C394.79 146.233 395.195 152.24 395.903 152.24C396.61 152.24 397.249 146.371 397.521 143.919C397.953 139.984 398.301 135.284 398.33 120.143C398.358 105.308 398.03 106.072 398.33 105.086C398.548 104.365 399.066 102.827 398.33 101.519C397.193 99.5105 393.391 98.5832 390.689 99.8314C390.385 99.9649 390.099 100.132 389.835 100.331C387.408 102.157 387.732 106.239 387.813 107.463C388.306 114.846 387.262 122.275 387.813 129.654C388.864 143.76 387.631 152.601 388.217 152.636C388.804 152.672 389.961 142.219 390.24 139.56C391.453 127.878 392.092 122.034 391.453 117.766C390.709 112.801 389.05 107.697 391.049 103.897C391.259 103.501 391.858 102.439 391.453 101.519C390.68 99.7918 386.898 99.8869 384.981 99.9345C381.871 100.014 379.694 100.065 378.509 101.519C377.296 103.033 377.983 104.991 378.509 108.652C378.999 112.056 378.707 115.523 378.914 118.955C379.723 132.732 378.024 151.301 379.318 151.448C379.953 151.519 381.122 147.152 381.745 143.522C383.549 133.014 380.791 128.596 381.745 116.181C381.899 114.2 381.955 112.218 382.15 110.237C382.821 103.374 383.8 100.557 382.15 99.1419C381.486 98.5753 380.495 98.5 378.509 98.3494C376.584 98.178 374.645 98.4494 372.846 99.1419C371.633 99.6254 370.561 100.065 370.015 101.123C369.351 102.407 369.873 103.861 370.015 104.293C370.1 104.547 370.071 108.688 370.015 116.973C369.97 123.749 369.558 122.743 369.206 133.616C368.995 138.14 369.403 142.671 370.419 147.089C370.795 148.694 371.455 151.491 372.037 151.448C372.62 151.404 372.943 148.186 373.251 137.579C374.112 107.741 372.498 109.817 373.655 106.275C373.987 105.26 374.869 102.795 373.655 101.123C372.312 99.2688 369.052 99.2965 366.779 99.5382C366.471 106.079 366.202 112.683 365.97 119.351C365.579 130.747 365.309 141.974 365.161 153.033L405.61 155.014C405.792 128.623 406.015 109.952 406.419 103.501C406.628 100.326 406.492 97.1378 406.015 93.9906C405.61 91.3754 405.166 88.3321 403.992 86.0656C400.692 79.67 391.109 78.2395 384.577 77.348C376.584 76.2543 369.711 76.6783 359.498 78.1405C345.806 80.1019 335.228 82.6261 324.307 85.273C314.748 87.5832 305.137 89.6715 295.587 92.0094C293.047 92.6315 290.414 92.8653 287.902 93.5944C285.604 94.2601 284.168 94.8624 282.239 94.3869C280.785 94.022 279.501 93.1835 278.598 92.0094C277.385 90.4045 277.385 88.665 277.385 87.6506C277.385 83.4899 279.99 82.6459 279.407 80.1217C278.966 78.2118 277.514 78.8577 274.553 74.9704C273.34 73.3854 272.798 72.2482 271.317 71.8004C270.424 71.527 269.064 71.4755 268.486 72.1967C267.908 72.9178 268.385 74.1225 268.89 75.3667C269.165 76.0482 269.841 77.5263 272.126 80.1217C273.502 81.683 274.193 82.4676 274.958 82.8955C275.249 83.058 277.789 84.4251 280.621 83.688C282.473 83.2086 282.744 82.2853 283.857 82.4993C285.345 82.7846 286.122 84.6787 286.688 86.0656C287.166 87.2305 287.772 88.7125 287.093 89.6318C286.514 90.4244 285.281 90.4244 284.666 90.4244C280.216 90.5472 276.006 92.7107 274.553 93.5944C271.989 95.1556 272.009 96.3682 268.081 98.7457C266.629 99.6214 265.808 99.9345 264.845 99.9345C262.014 99.9067 260.048 97.0339 259.587 96.3682C256.137 91.3754 258.374 84.8491 258.778 83.688C260.085 79.884 262.334 77.5184 264.036 75.7629C265.594 74.1581 273.85 66.0072 286.284 65.8566C289.894 65.7702 293.481 66.4459 296.801 67.8379C299.774 69.2465 302.397 71.2752 304.486 73.7817C306.509 76.1988 306.695 77.5501 306.509 78.5367C306.418 79.0199 306.228 79.4798 305.949 79.8886C305.671 80.2974 305.311 80.6463 304.891 80.9143C303.782 81.5601 302.059 81.6235 301.655 80.9143C301.25 80.205 302.144 78.7705 303.273 78.1405C303.754 77.8396 304.322 77.7005 304.891 77.7442C306.598 77.9384 307.916 80.1693 307.722 82.103C307.658 82.8271 307.376 83.5165 306.913 84.0843C305.4 85.8952 302.148 86.022 301.25 84.8768C300.846 84.3418 301.25 83.9218 300.846 82.8955C300.642 82.3502 300.319 81.855 299.9 81.4444C299.481 81.0338 298.975 80.7177 298.419 80.518C297.1 80.1218 295.652 81.0569 292.756 82.8955C291.635 83.6048 291.069 83.9694 290.733 84.4805C290.207 85.2731 290.434 85.6257 289.924 88.8393C289.771 89.8022 289.694 90.1351 289.924 90.4244C290.503 91.1535 292.287 90.6581 293.16 90.4244C300.777 88.3678 302.532 88.7759 308.127 86.0656C309.821 85.2453 310.214 84.9402 310.554 84.4805C312.827 81.4096 309.555 75.6639 308.936 74.5742C304.955 67.5803 296.145 62.6588 287.093 62.2903C280.928 62.0407 276.289 63.9625 271.722 65.8566C267.738 67.509 262.754 69.6369 258.374 74.5742C255.971 77.2806 252.132 81.6037 252.306 87.6506C252.435 92.1758 254.733 95.5994 255.542 96.7644C256.578 98.2979 257.904 100.255 260.396 101.519C261.86 102.26 262.123 101.955 265.654 103.104C270.051 104.539 270.937 105.438 271.317 105.878C272.612 107.384 273.243 109.666 272.531 110.237C271.819 110.808 269.792 109.508 269.699 109.445C268.081 108.367 266.512 106.144 266.868 103.897C267.204 101.777 269.101 100.695 272.531 98.7457C276.285 96.6099 278.356 95.433 281.025 95.9719C284.613 96.701 286.522 99.978 287.093 101.123C289.649 106.275 286.547 111.402 286.284 111.822C284.387 114.846 280.378 118.059 276.171 117.37C271.965 116.68 269.372 112.266 268.89 111.426C267.272 108.616 267.814 107.067 266.059 105.482C264.591 104.17 262.823 104.02 259.183 103.897C250.138 103.588 245.616 103.437 241.789 104.293C236.854 105.399 236.405 106.56 233.295 106.671C232.817 106.671 231.677 106.702 230.868 107.463C229.913 108.359 229.755 109.956 230.059 111.03C230.71 113.332 233.578 113.522 236.935 115.388C239.803 116.973 239.249 117.699 247.452 126.483C251.497 130.842 252.407 131.468 253.52 132.031C254.373 132.459 256.234 133.291 263.227 133.616C270.221 133.941 274.711 134.151 275.362 132.427C275.977 130.803 272.875 128.338 272.531 128.069C271.572 127.308 269.732 125.846 268.081 126.483C266.637 127.042 266.156 128.889 266.059 129.257C265.756 130.426 266.18 130.62 266.059 132.031C265.881 134.131 264.845 134.591 264.441 136.786C264.295 137.559 264.312 138.078 264.441 139.956C264.914 146.776 265.25 148 264.441 148.674C263.632 149.347 262.73 148.729 259.992 148.277C254.252 147.33 253.046 149.026 250.688 147.881C247.533 146.348 249.135 143.043 245.43 138.371C242.93 135.201 238.581 132.162 234.508 132.824C232.356 133.172 230.318 134.559 230.463 135.201C230.548 135.574 231.365 135.7 234.913 135.994C238.46 136.287 238.958 136.532 240.171 136.39C241.478 136.231 243.739 135.962 244.216 134.805C244.851 133.267 242.008 130.937 239.767 128.861C230.548 120.314 231.83 116.351 226.014 113.407C223.781 112.278 219.946 112.258 212.261 112.218C200.53 112.159 192.323 113.93 187.388 112.547C186.175 112.202 184.751 112.076 181.924 111.822C180.059 111.656 179.145 111.656 178.688 112.218C177.947 113.126 178.862 114.929 179.092 115.388C179.719 116.633 181.05 118.408 186.778 120.936C190.871 122.743 192.922 123.646 193.654 122.917C194.799 121.78 192.978 117.144 189.609 114.596C185.39 111.406 178.991 111.675 175.047 114.2C173.704 115.059 172.806 116.094 171.002 118.162C169.271 120.098 167.777 122.225 166.553 124.502C164.912 127.602 163.818 130.951 163.317 134.409C165.74 133.396 168.417 133.12 171.002 133.616C173.89 134.234 177.106 136.085 181.115 142.334C184.294 147.287 186.551 152.787 188.8 162.939C189.981 168.276 189.609 167.896 192.44 195.035C193.136 201.72 193.905 208.904 191.632 209.697C190.786 209.998 189.803 209.301 189.205 208.904C186.296 206.895 186.106 202.873 185.969 198.602C185.811 193.748 185.681 189.757 188.396 187.903C188.646 187.733 190.685 186.377 192.44 187.11C196.162 188.668 195.341 198.245 194.463 208.508C194.099 212.764 193.5 217.17 192.845 221.981C192.169 226.954 192.141 226.534 191.632 230.302C189.985 242.459 190.131 247.614 186.373 250.907C185.495 251.676 184.755 252.045 183.946 252.096C181.143 252.282 178.712 248.53 176.665 244.964C170.654 234.451 168.575 227.132 168.575 227.132C166.621 220.274 165.401 213.236 164.935 206.131C164.437 198.206 163.62 182.45 170.598 164.92C173.025 158.806 178.425 145.262 185.16 145.504C186.308 145.543 189.116 146.047 193.654 153.429C199.115 162.309 200.818 170.959 202.148 183.148C204.001 200.088 204.927 208.56 203.362 220.396C202.148 229.51 201.186 236.868 196.485 245.36C190.539 256.102 182.102 262.399 177.07 265.569L170.598 260.021V250.115L164.126 248.926C163.449 244.567 162.775 240.208 162.103 235.85L158.058 236.246L153.609 224.358L158.058 219.999C157.519 217.886 156.98 215.773 156.44 213.659L152.395 208.112C152.527 205.602 152.662 203.093 152.8 200.583L156.036 197.017C155.259 192.896 154.337 186.774 154.418 180.77C154.446 178.543 154.47 177.398 154.822 176.015C155.664 172.707 157.322 171.213 157.654 167.694C157.728 166.903 157.728 166.107 157.654 165.316L162.103 162.939C161.564 161.486 161.025 160.033 160.485 158.58L166.553 150.259C166.283 148.277 166.013 146.296 165.744 144.315L173.025 138.371V131.239L185.16 124.502C189.176 124.316 191.271 125.429 192.44 126.483C194.03 127.918 194.208 129.515 196.89 134.012C197.699 135.387 198.435 136.481 198.912 137.182L226.823 134.012L228.036 145.504L230.868 147.881L228.441 153.825C229.519 157.127 230.598 160.429 231.677 163.731C234.423 164.29 235.374 165.281 235.722 166.109C236.478 167.908 234.617 169.489 234.104 173.638C234 174.957 234 176.281 234.104 177.6C234.197 179.934 234.403 183.172 234.913 187.11L238.958 189.884C237.472 197.017 235.989 204.149 234.508 211.282L238.958 215.244C239.577 219.116 238.901 221.806 238.149 223.566C236.498 227.429 233.728 228.57 233.295 231.887C232.959 234.439 234.217 236.714 235.317 238.227L228.441 250.907C228.573 253.153 228.708 255.398 228.845 257.644L225.205 263.191L215.901 267.946L211.452 266.757L205.384 267.946V272.305L184.755 274.286C184.216 272.305 183.676 270.324 183.137 268.342L174.643 267.154H-153" stroke="#159E3C" stroke-miterlimit="10"/>
</svg>
